HIERARCHY
ROOT Hips
{
	OFFSET 0.000000 0.000000 0.000000
	CHANNELS 6 Xposition Yposition Zposition Yrotation Xrotation Zrotation
	JOINT Chest
	{
		OFFSET 0.000000 -0.009281 11.569106
		CHANNELS 3 Yrotation Xrotation Zrotation
		JOINT Chest2
		{
			OFFSET -0.000000 0.016865 9.269641
			CHANNELS 3 Yrotation Xrotation Zrotation
			JOINT Chest3
			{
				OFFSET -0.000000 0.000001 8.374491
				CHANNELS 3 Yrotation Xrotation Zrotation
				JOINT Chest4
				{
					OFFSET -0.000000 0.000001 8.374493
					CHANNELS 3 Yrotation Xrotation Zrotation
					JOINT Neck
					{
						OFFSET -0.000000 0.000002 12.152554
						CHANNELS 3 Yrotation Xrotation Zrotation
						JOINT Head
						{
							OFFSET -0.000000 0.040101 7.802319
							CHANNELS 3 Yrotation Xrotation Zrotation
							End Site
							{
								OFFSET -0.000000 0.020947 14.853096
							}
						}
					}
					JOINT RightCollar
					{
						OFFSET 2.894404 0.000001 6.791374
						CHANNELS 3 Yrotation Xrotation Zrotation
						JOINT RightShoulder
						{
							OFFSET 13.574684 0.000001 0.000000
							CHANNELS 3 Yrotation Xrotation Zrotation
							JOINT RightElbow
							{
								OFFSET 23.923903 0.000002 0.000000
								CHANNELS 3 Yrotation Xrotation Zrotation
								JOINT RightWrist
								{
									OFFSET 19.846718 0.012767 0.000000
									CHANNELS 3 Yrotation Xrotation Zrotation
									End Site
									{
										OFFSET 14.973145 0.000001 0.000000
									}
								}
							}
						}
					}
					JOINT LeftCollar
					{
						OFFSET -2.894404 0.000001 6.791374
						CHANNELS 3 Yrotation Xrotation Zrotation
						JOINT LeftShoulder
						{
							OFFSET -13.574684 -0.000001 0.000000
							CHANNELS 3 Yrotation Xrotation Zrotation
							JOINT LeftElbow
							{
								OFFSET -23.923903 -0.000002 0.000000
								CHANNELS 3 Yrotation Xrotation Zrotation
								JOINT LeftWrist
								{
									OFFSET -19.846718 0.012763 0.000000
									CHANNELS 3 Yrotation Xrotation Zrotation
									End Site
									{
										OFFSET -14.973145 -0.000001 0.000000
									}
								}
							}
						}
					}
				}
			}
		}
	}
	JOINT RightHip
	{
		OFFSET 9.469263 0.004643 0.045487
		CHANNELS 3 Yrotation Xrotation Zrotation
		JOINT RightKnee
		{
			OFFSET 0.000000 0.002661 -40.478676
			CHANNELS 3 Yrotation Xrotation Zrotation
			JOINT RightAnkle
			{
				OFFSET 0.000000 0.049106 -35.224068
				CHANNELS 3 Yrotation Xrotation Zrotation
				JOINT RightToe
				{
					OFFSET -0.000001 12.539529 -6.151390
					CHANNELS 3 Yrotation Xrotation Zrotation
					End Site
					{
						OFFSET -0.000001 5.044994 -1.291870
					}
				}
			}
		}
	}
	JOINT LeftHip
	{
		OFFSET -9.469263 0.004641 0.045487
		CHANNELS 3 Yrotation Xrotation Zrotation
		JOINT LeftKnee
		{
			OFFSET 0.000000 0.002661 -40.478676
			CHANNELS 3 Yrotation Xrotation Zrotation
			JOINT LeftAnkle
			{
				OFFSET 0.000000 0.049106 -35.224068
				CHANNELS 3 Yrotation Xrotation Zrotation
				JOINT LeftToe
				{
					OFFSET -0.000001 12.539529 -6.151390
					CHANNELS 3 Yrotation Xrotation Zrotation
					End Site
					{
						OFFSET -0.000001 5.044994 -1.291870
					}
				}
			}
		}
	}
}
MOTION
Frames: 15
Frame Time: 0.016667
-83.569061 77.123756 82.969986 -4.674536 -1.681132 -110.703788 -1.476397 -4.493700 0.066292 -0.564701 -1.981549 0.136982 -0.564701 -1.981549 0.136986 -0.423039 -1.486291 0.100898 3.263773 -21.672819 -4.206061 4.712776 -4.014822 -6.686246 9.250973 5.961397 -2.205443 46.863386 -17.710370 -12.668053 -2.123186 -59.754484 62.734106 -29.950830 43.249407 65.676326 -6.374960 4.482697 -4.423495 -44.476484 -7.249594 11.502018 -42.444640 -55.410449 -18.842436 17.014684 18.633591 -58.958869 0.530037 -9.145488 -11.643973 8.395142 -26.075977 -6.180925 5.106345 -7.536153 16.992227 -23.612913 32.956547 -7.036562 -8.051793 -4.643748 7.701113 -3.479668 -3.539460 3.084287 4.533305 0.458997 4.365796 0.569768 0.065799 0.132029 
-83.483147 77.081177 82.984436 -4.700340 -1.604205 -110.688734 -1.527831 -4.517667 0.045909 -0.592326 -1.995440 0.132612 -0.592325 -1.995440 0.132609 -0.443766 -1.496710 0.097513 3.289824 -21.699405 -4.213720 4.758591 -4.063439 -6.693048 9.256372 5.925880 -2.221943 46.896270 -17.712270 -12.603752 -2.138186 -59.742415 62.673413 -29.942258 43.223575 65.693142 -6.379129 4.498674 -4.399832 -44.387077 -7.257067 11.487623 -42.529348 -55.446393 -18.864636 17.025522 18.619174 -58.999331 0.386743 -8.977525 -11.706813 8.579710 -26.465028 -6.314830 4.639712 -7.821706 16.977361 -23.501313 33.548916 -7.101837 -8.064001 -4.583071 7.692311 -3.507158 -3.794492 3.224746 4.132681 0.550046 4.305392 0.741280 0.120886 0.126548 
-83.390289 77.040985 83.004807 -4.744589 -1.524474 -110.656906 -1.596533 -4.546030 0.019850 -0.615978 -2.008424 0.125746 -0.615977 -2.008423 0.125750 -0.461522 -1.506446 0.092279 3.309956 -21.734430 -4.227229 4.792312 -4.127847 -6.712257 9.253393 5.882757 -2.248069 46.935728 -17.698724 -12.546955 -2.145181 -59.733331 62.613464 -29.935193 43.180845 65.704617 -6.376185 4.493211 -4.375540 -44.307639 -7.287888 11.468554 -42.606116 -55.476784 -18.892749 17.064872 18.636974 -59.046671 0.251220 -8.816996 -11.705711 8.781076 -26.850566 -6.663067 4.275608 -8.125103 16.882974 -23.375392 34.197709 -7.180612 -8.099203 -4.547141 7.638215 -3.508442 -4.043174 3.395006 3.730671 0.619709 4.233414 0.863112 0.177572 0.094670 
-83.281212 76.997169 83.027740 -4.809078 -1.461855 -110.628075 -1.667366 -4.583921 0.003518 -0.633726 -2.018986 0.120395 -0.633726 -2.018985 0.120396 -0.474847 -1.514367 0.088194 3.328012 -21.782209 -4.250889 4.819833 -4.215952 -6.750585 9.245448 5.838333 -2.279212 46.985049 -17.680394 -12.511494 -2.177183 -59.711877 62.585303 -29.918640 43.121610 65.711713 -6.356835 4.437367 -4.368094 -44.267764 -7.304667 11.453797 -42.623232 -55.479974 -18.956712 17.106289 18.630176 -59.081560 0.122814 -8.687473 -11.688091 8.974237 -27.237068 -7.102813 4.015010 -8.451939 16.754814 -23.279257 34.884816 -7.288447 -8.149698 -4.556886 7.578329 -3.485332 -4.260089 3.595661 3.354070 0.674678 4.155151 0.931854 0.227740 0.074473 
-83.156670 76.955673 83.048935 -4.871994 -1.409578 -110.609238 -1.731438 -4.623875 -0.006238 -0.645715 -2.030470 0.115614 -0.645715 -2.030470 0.115612 -0.483851 -1.522978 0.084559 3.341630 -21.828897 -4.274585 4.839294 -4.302152 -6.790251 9.227679 5.813840 -2.288711 47.031959 -17.651719 -12.491604 -2.201536 -59.689139 62.565031 -29.896414 43.046553 65.718386 -6.331671 4.379071 -4.352742 -44.256713 -7.316865 11.436237 -42.587438 -55.469961 -19.061900 17.135877 18.626148 -59.084599 -0.031019 -8.554884 -11.704824 9.177483 -27.658930 -7.563794 3.653957 -8.831435 16.850613 -23.226034 35.599445 -7.405855 -8.203946 -4.606205 7.538988 -3.455142 -4.426600 3.751270 3.044255 0.715681 4.090380 0.932996 0.263189 0.044990 
-83.018547 76.920601 83.065758 -4.926760 -1.360183 -110.610037 -1.792822 -4.654633 0.012083 -0.657963 -2.040950 0.115151 -0.657963 -2.040950 0.115152 -0.493036 -1.530839 0.084157 3.357675 -21.862377 -4.298195 4.862758 -4.363752 -6.828896 9.217090 5.805411 -2.301722 47.050202 -17.630957 -12.469819 -2.209357 -59.674284 62.553980 -29.879188 42.978924 65.717826 -6.306560 4.344024 -4.353668 -44.246027 -7.304784 11.427724 -42.583716 -55.469172 -19.120893 17.164682 18.624025 -59.077243 -0.238032 -8.394343 -11.747808 9.409540 -28.156092 -7.979328 3.477428 -9.219394 16.842476 -23.302334 36.338478 -7.598276 -8.268866 -4.671665 7.537804 -3.428033 -4.560003 3.865964 2.816750 0.749329 4.015283 0.880809 0.289824 0.033807 
-82.871094 76.890480 83.076286 -4.964567 -1.317431 -110.615918 -1.835167 -4.671491 0.037547 -0.670595 -2.048339 0.117841 -0.670595 -2.048338 0.117841 -0.502498 -1.536385 0.086122 3.370609 -21.876881 -4.318847 4.880811 -4.390266 -6.862801 9.214198 5.844560 -2.317206 47.049604 -17.652885 -12.470803 -2.210619 -59.666600 62.540470 -29.863342 42.934593 65.727252 -6.311129 4.377000 -4.362257 -44.216739 -7.287615 11.440428 -42.640656 -55.477146 -19.109141 17.183762 18.604066 -59.067811 -0.465312 -8.208370 -11.820311 9.652539 -28.709044 -8.290791 3.448962 -9.614654 16.740073 -23.513146 37.083822 -7.851440 -8.326945 -4.753659 7.552286 -3.413685 -4.647059 3.948123 2.663128 0.785912 3.956241 0.794300 0.297970 0.036943 
-82.716606 76.861732 83.077827 -5.002725 -1.269932 -110.617031 -1.875940 -4.680067 0.053917 -0.683855 -2.052876 0.117744 -0.683854 -2.052876 0.117748 -0.512440 -1.539792 0.086005 3.378003 -21.881450 -4.328673 4.891570 -4.398508 -6.878555 9.210303 5.876845 -2.319714 47.043450 -17.691899 -12.452850 -2.211541 -59.671094 62.520526 -29.865036 42.924252 65.732252 -6.334563 4.428780 -4.352388 -44.176926 -7.254621 11.453268 -42.713244 -55.499341 -19.063285 17.186450 18.573479 -59.068234 -0.754864 -7.993663 -11.914568 9.932718 -29.335365 -8.563945 3.392970 -10.050796 16.786196 -23.845435 37.839050 -8.146434 -8.396647 -4.851579 7.544000 -3.405839 -4.712479 4.026036 2.582711 0.838733 3.874154 0.679532 0.288597 0.044361 
-82.553421 76.838890 83.065849 -5.042071 -1.204599 -110.599737 -1.934910 -4.694725 0.058509 -0.698036 -2.057606 0.117609 -0.698036 -2.057606 0.117612 -0.523075 -1.543342 0.085851 3.388927 -21.880477 -4.332389 4.910246 -4.396391 -6.882178 9.207139 5.891186 -2.340553 47.040104 -17.723699 -12.396404 -2.227612 -59.673635 62.506497 -29.863028 42.925867 65.747715 -6.344171 4.459206 -4.336280 -44.146395 -7.221087 11.437833 -42.749775 -55.516153 -19.050921 17.192426 18.554573 -59.086921 -1.093141 -7.757623 -12.078359 10.200104 -30.036665 -8.838456 3.404647 -10.502673 16.979814 -24.334453 38.584729 -8.509138 -8.498310 -4.955851 7.458594 -3.402588 -4.760818 4.086460 2.595786 0.923803 3.882787 0.530185 0.257043 0.066680 
-82.383553 76.837723 83.035591 -5.100204 -1.098371 -110.553531 -2.034171 -4.700389 0.040098 -0.709409 -2.060361 0.115919 -0.709409 -2.060361 0.115921 -0.531608 -1.545407 0.084539 3.395223 -21.891282 -4.331253 4.922306 -4.416269 -6.878504 9.199295 5.868143 -2.345401 47.038966 -17.726778 -12.337250 -2.213363 -59.663062 62.464723 -29.846219 42.903198 65.770794 -6.346458 4.449102 -4.313455 -44.136945 -7.208409 11.416309 -42.729281 -55.515562 -19.100863 17.192355 18.549076 -59.105793 -1.526502 -7.480500 -12.274275 10.483684 -30.846118 -9.201107 3.549662 -10.964284 17.257195 -24.973204 39.336692 -8.934701 -8.659401 -5.067412 7.254321 -3.415336 -4.807975 4.117037 2.703076 1.047188 3.988680 0.365305 0.211501 0.117204 
-82.212875 76.852776 82.986443 -5.171142 -0.988498 -110.509394 -2.141112 -4.715581 0.028690 -0.720142 -2.068414 0.117223 -0.720141 -2.068414 0.117220 -0.539650 -1.551450 0.085469 3.402069 -21.900706 -4.329483 4.935491 -4.433581 -6.873506 9.188437 5.863838 -2.348327 47.037658 -17.724968 -12.282541 -2.201932 -59.660814 62.434513 -29.831722 42.878469 65.788730 -6.345881 4.448354 -4.311589 -44.127609 -7.206868 11.406542 -42.714111 -55.509825 -19.152347 17.203315 18.551593 -59.123886 -1.990376 -7.173604 -12.384433 10.799553 -31.734196 -9.621378 3.897548 -11.410886 17.426661 -25.743104 40.086616 -9.419947 -8.850614 -5.182967 6.965351 -3.425783 -4.862612 4.186587 2.877139 1.207297 4.093268 0.202011 0.159333 0.181085 
-82.042587 76.856010 82.921783 -5.266875 -0.892643 -110.414297 -2.236956 -4.762469 -0.024468 -0.734666 -2.081771 0.119899 -0.734665 -2.081771 0.119906 -0.550530 -1.561475 0.087415 3.413933 -21.892331 -4.328790 4.956854 -4.417717 -6.868786 9.202036 5.931725 -2.362199 47.030449 -17.768100 -12.256834 -2.223773 -59.654421 62.429370 -29.813055 42.855626 65.807923 -6.344216 4.501829 -4.317249 -44.101784 -7.239582 11.420554 -42.716088 -55.501451 -19.202245 17.209910 18.554287 -59.130546 -2.415401 -6.895228 -12.568961 11.047618 -32.654759 -9.924869 4.273125 -11.803070 17.560474 -26.528079 40.798516 -9.853007 -9.035375 -5.314822 6.580711 -3.433890 -4.950933 4.339214 3.098101 1.440332 4.189861 0.041408 0.081633 0.250058 
-81.888367 76.862366 82.842934 -5.340843 -0.793878 -110.335388 -2.317731 -4.779808 -0.063453 -0.750177 -2.095626 0.121484 -0.750177 -2.095626 0.121485 -0.562153 -1.571872 0.088532 3.426164 -21.878783 -4.330193 4.978131 -4.392244 -6.867675 9.206028 5.949467 -2.378148 47.015962 -17.792318 -12.197027 -2.301650 -59.645733 62.473377 -29.802776 42.833687 65.826624 -6.349740 4.517575 -4.323049 -44.057818 -7.226061 11.404748 -42.751049 -55.512192 -19.230087 17.235293 18.549732 -59.134979 -2.853287 -6.559726 -12.728174 11.284994 -33.628419 -10.267997 4.729129 -12.235207 17.834023 -27.500514 41.475542 -10.412538 -9.218980 -5.399063 6.196154 -3.443806 -5.075666 4.414944 3.402895 1.724580 4.368740 -0.137474 -0.015491 0.297580 
-81.741249 76.878845 82.750961 -5.435086 -0.661345 -110.251793 -2.433326 -4.806159 -0.108194 -0.767702 -2.110513 0.127604 -0.767702 -2.110512 0.127604 -0.575271 -1.583049 0.093040 3.441247 -21.863632 -4.342290 5.001496 -4.363686 -6.885074 9.206479 5.943675 -2.404086 47.010549 -17.799567 -12.125907 -2.421475 -59.642489 62.547970 -29.797851 42.826700 65.842867 -6.344763 4.524297 -4.336640 -44.008794 -7.207654 11.380276 -42.767694 -55.531432 -19.290430 17.269047 18.544922 -59.140791 -3.318408 -6.196588 -12.799113 11.515482 -34.644502 -10.732346 5.301589 -12.667073 18.123185 -28.557456 42.136482 -10.995430 -9.455583 -5.475784 5.782027 -3.454876 -5.214044 4.395754 3.745452 2.018305 4.713003 -0.287970 -0.095530 0.367052 
-81.601128 76.894737 82.649292 -5.518964 -0.537279 -110.191285 -2.527185 -4.828714 -0.139222 -0.786329 -2.120292 0.137830 -0.786329 -2.120291 0.137835 -0.589201 -1.590400 0.100632 3.454233 -21.853557 -4.366676 5.017778 -4.344555 -6.925373 9.209504 5.941305 -2.414609 47.024804 -17.811706 -12.091312 -2.521045 -59.620885 62.588097 -29.774372 42.815017 65.877578 -6.349671 4.542260 -4.354392 -43.970060 -7.204013 11.382410 -42.745612 -55.549003 -19.378022 17.285341 18.541110 -59.158495 -3.754453 -5.804264 -12.800266 11.707112 -35.688077 -11.221843 5.868190 -13.085521 18.560161 -29.700347 42.727918 -11.583867 -9.674464 -5.537885 5.383606 -3.471610 -5.374130 4.458118 4.107808 2.360222 4.919109 -0.419229 -0.191412 0.378362 
